<svg width="111" height="111" viewBox="0 0 111 111" fill="none" xmlns="http://www.w3.org/2000/svg">
<path fill-rule="evenodd" clip-rule="evenodd" d="M9 9V66H31.3867C31.7412 62.0922 32.3423 58.3672 33.2019 54.8348C32.6887 54.8749 32.1471 54.895 31.5772 54.895H22.9522V41.313H31.8309C33.616 41.313 35.1475 41.6099 36.4252 42.2036C36.8161 42.3796 37.1798 42.579 37.5161 42.8018C41.2954 35.1393 46.3201 28.9877 52.6953 24.6284C52.7285 24.233 52.7451 23.8292 52.7451 23.417C52.7451 20.5596 52.0029 18.0454 50.5184 15.8745C49.0527 13.7036 46.8542 12.0151 43.9228 10.8091C41.0102 9.60303 37.393 9 33.0711 9H9ZM47.5948 37.7649C45.6687 40.3117 43.9496 43.1936 42.4376 46.4105C39.8216 52.0218 38.1496 58.5233 37.4214 65.9152C40.6145 65.6931 43.4017 65.0348 45.7831 63.9404C46.2181 63.7378 46.6381 63.5246 47.0432 63.3008C47.1956 62.2645 47.3711 61.2465 47.5695 60.2469C48.1125 57.5105 48.8279 54.9113 49.7156 52.4492C50.8565 49.3333 52.2223 46.551 53.8131 44.1023C53.6289 43.6974 53.4232 43.3057 53.1961 42.9272C51.9935 40.9048 50.3962 39.3276 48.4044 38.1958C48.1378 38.0429 47.8679 37.8992 47.5948 37.7649ZM30.6752 32.4346H22.9522V19.938H30.9007C33.2308 19.938 35.0817 20.4854 36.4534 21.5801C37.8252 22.6748 38.511 24.1777 38.511 26.0889C38.511 27.4248 38.1728 28.5659 37.4963 29.5122C36.8386 30.4585 35.9179 31.1821 34.7341 31.6831C33.5502 32.1841 32.1973 32.4346 30.6752 32.4346Z" fill="#1C1917"/>
<path d="M102 43.6806C102 48.3682 100.773 52.6698 98.3192 56.5853C95.8653 60.5009 92.296 63.6995 87.6113 66.1811C82.9266 68.6628 77.3496 70.1243 70.8803 70.5654L67.2831 90.5016C65.8889 98.1672 62.0965 102 55.906 102C52.5041 102 49.3531 101.007 46.453 99.022C43.6088 97.0366 41.3222 94.0035 39.5933 89.9225C37.8644 85.8415 37 80.823 37 74.867C37 63.6719 38.8125 54.1864 42.4376 46.4105C46.1184 38.5794 51.0262 32.7337 57.1609 28.8733C63.3514 24.9578 70.1553 23 77.5727 23C82.8151 23 87.2488 23.9099 90.8739 25.7298C94.5547 27.5497 97.3153 30.0314 99.1557 33.1749C101.052 36.2632 102 39.7651 102 43.6806ZM72.3861 62.045C83.819 60.6112 89.5354 54.7379 89.5354 44.4251C89.5354 40.7853 88.3085 37.8349 85.8546 35.5738C83.4565 33.2576 79.7199 32.0995 74.6448 32.0995C68.9005 32.0995 63.8812 33.8918 59.5869 37.4764C55.3483 41.0611 52.0579 46.052 49.7156 52.4492C47.429 58.7913 46.2857 66.0433 46.2857 74.2052C46.2857 77.6244 46.6203 80.6576 47.2896 83.3047C48.0146 85.9518 48.9069 88.0199 49.9665 89.5089C51.0819 90.9428 52.1416 91.6597 53.1454 91.6597C54.5397 91.6597 55.5993 89.7571 56.3243 85.9518L59.0849 70.3173C56.9099 69.9864 55.9618 69.8485 56.2407 69.9037C54.5676 69.6279 53.4801 69.1316 52.9781 68.4147C52.4762 67.6426 52.2252 66.6775 52.2252 65.5194C52.2252 64.3061 52.5598 63.341 53.2291 62.6241C53.9541 61.9072 54.9301 61.5487 56.157 61.5487C56.7147 61.5487 57.133 61.5763 57.4118 61.6314C58.7503 61.852 59.7821 61.9899 60.5071 62.045C61.2321 57.7435 62.2638 51.9805 63.6023 44.756C63.9369 42.881 64.6898 41.5574 65.861 40.7853C67.0879 39.9581 68.5101 39.5445 70.1274 39.5445C71.9678 39.5445 73.2784 39.903 74.0592 40.6199C74.8958 41.2817 75.314 42.3571 75.314 43.8461C75.314 44.7284 75.2583 45.4454 75.1467 45.9969L72.3861 62.045Z" fill="black"/>
</svg>
